<?xml version="1.0"?>
<svg xmlns:rdf="http://www.w3.org/1999/02/22-rdf-syntax-ns#" xmlns="http://www.w3.org/2000/svg" xmlns:cc="http://web.resource.org/cc/" xmlns:dc="http://purl.org/dc/elements/1.1/" xmlns:svg="http://www.w3.org/2000/svg" id="svg2373" viewBox="0 0 687.18 513.12" version="1.0">
  <g id="layer1" transform="translate(-30.694 -117.78)">
    <path id="path1390" d="m156.91 190.01c-2.04 6.11-19.22 13.1-47.75 22.12-28.532 9.03-48.331 2.92-66.383 13.98s-12.229 16.89-5.823 30.28c6.405 13.39 10.773 20.96 31.445 23.29s32.321-19.5 51.241-13.97c18.93 5.53 11.94 34.94 24.46 36.1 12.52 1.17 4.08-26.49 25.62-31.44 21.55-4.95 41.35 0.87 60.56 11.64 19.22 10.78 12.23 14.56 16.31 31.45 4.07 16.88 7.86 22.71 16.3 41.92 8.45 19.22 16.31 10.78 5.83 39.6-10.49 28.83-51.26 53.72-64.06 69.88-12.23 15.43-7.28 3.2-9.32 30.28-2.03 27.08-2.03 43.97-3.49 71.04-1.46 27.08 1.46 21.55 3.49 33.78 2.04 12.23 6.7 26.2 16.31 22.13 9.61-4.08 0.37-25.62 2.33-61.73 2.04-37.56 1.16-61.73 8.15-74.54 7.48-13.71 38.73-39.01 69.88-61.72s43.38-37.27 53.57-1.17c10.28 36.43 17.47 70.76 18.64 110.64 1.16 39.89-2.04 4.95 0 23.3 2.03 18.34 9.31 32.61 8.15 50.08-1.17 17.47-13.69 14.85-12.81 19.8 0.87 4.94 5.53 6.11 16.3 0 10.78-6.12 24.17-2.92 26.79-24.46 2.62-21.55-9.61-9.61-16.31-61.73-6.69-52.12-25.03-110.64-10.48-146.74 14.56-36.11 29.99 4.07 68.72 2.33 38.72-1.75 62.3-27.66 86.18-9.32 23.87 18.34 7.14 51.97 11.65 88.51 4.52 36.7 14.55 21.55 3.49 54.74s-39.31 49.79-55.9 74.54c-16.6 24.75-5.53 13.97-3.5 19.8 2.04 5.82 6.12 7.57 17.47 1.16 11.36-6.41 14.85-11.94 27.95-19.8 13.75-8.25 0.3-10.19 10.49-30.28s33.48-29.99 38.43-73.37-30.86-80.94-18.63-100.16c12.22-19.22 30.57 14.56 59.39 39.6 28.83 25.04 16.31 29.7 37.27 60.56s13.39 44.84 27.95 62.89 16.6 29.12 20.96 19.8c4.37-9.32 14.27-32.32 8.16-44.26-6.12-11.94-2.62 14.56-23.3-13.97-20.67-28.54-18.92-66.68-41.92-96.67s-22.42-19.8-40.76-32.61c-18.35-12.81-30.29-48.91-38.44-62.89-7.65-13.12-9.02-37.85-5.82-60.56s17.47 6.99 13.97-2.33c-3.49-9.32-1.45-19.22-27.95-34.94-26.49-15.72-42.51-20.09-78.03-27.95s-31.44-4.95-64.05-3.49c-32.61 1.45-33.78 11.35-66.39 9.31-32.61-2.03-38.72-14.85-64.05-17.47s-19.8 3.79-37.27 6.99-11.36 7.86-26.79 5.82c-15.43-2.03-18.92 0.59-23.29-6.11s9.61-11.79 10.19-16.45-3.49-7.28-9.32-5.82c-5.82 1.45-26.2 10.62-24.16 7.42s14.85-7.57 22.13-24.46c7.27-16.88 7.86-36.1 6.98-43.09-0.87-6.99-6.98 15.73-10.48 15.14-3.49-0.58-0.87-17.18-3.49-17.47s-2.04 11.36-6.99 16.31-8.73 7.86-12.81 3.49-1.46-21.54-3.49-20.96c-2.04 0.58-0.88 20.38-4.66 23.29-3.79 2.91-8.45-16.3-10.49-11.65-2.03 4.66 4.37 20.68 2.33 30.29-2.03 9.6-9.9 3.49-10.48 8.15s11.36 8.44 8.15 10.48c-3.2 2.04-8.15 6.11-20.96-2.33s-23.29-28.82-30.279-31.44c-6.988-2.63 6.119 19.21 2.329 20.96-3.785 1.75-16.596-16.89-17.469-13.98-0.874 2.91 4.367 16.6 13.975 25.63 9.604 9.02 8.444 7.27 24.454 10.48 16.02 3.2 41.64-3.79 39.6 2.33z" fill-rule="evenodd"/>
  </g>
  <metadata>
    <rdf:RDF>
      <cc:Work>
        <dc:format>image/svg+xml</dc:format>
        <dc:type rdf:resource="http://purl.org/dc/dcmitype/StillImage"/>
        <cc:license rdf:resource="http://creativecommons.org/licenses/publicdomain/"/>
        <dc:publisher>
          <cc:Agent rdf:about="http://openclipart.org/">
            <dc:title>Openclipart</dc:title>
          </cc:Agent>
        </dc:publisher>
        <dc:title>the elk</dc:title>
        <dc:date>2008-02-09T04:26:15</dc:date>
        <dc:description>animal, animal, clip art, clipart, elk, elk, forest, forest, image, mammal, mammal, media, moose, moose, png, public domain, silhouette, silhouette, svg, wild, wild, </dc:description>
        <dc:source>http://openclipart.org/detail/13240/the-elk-by-anonymous</dc:source>
        <dc:creator>
          <cc:Agent>
            <dc:title>Anonymous</dc:title>
          </cc:Agent>
        </dc:creator>
        <dc:subject>
          <rdf:Bag>
            <rdf:li>animal</rdf:li>
            <rdf:li>clip art</rdf:li>
            <rdf:li>clipart</rdf:li>
            <rdf:li>elk</rdf:li>
            <rdf:li>forest</rdf:li>
            <rdf:li>image</rdf:li>
            <rdf:li>mammal</rdf:li>
            <rdf:li>media</rdf:li>
            <rdf:li>moose</rdf:li>
            <rdf:li>png</rdf:li>
            <rdf:li>public domain</rdf:li>
            <rdf:li>silhouette</rdf:li>
            <rdf:li>svg</rdf:li>
            <rdf:li>wild</rdf:li>
          </rdf:Bag>
        </dc:subject>
      </cc:Work>
      <cc:License rdf:about="http://creativecommons.org/licenses/publicdomain/">
        <cc:permits rdf:resource="http://creativecommons.org/ns#Reproduction"/>
        <cc:permits rdf:resource="http://creativecommons.org/ns#Distribution"/>
        <cc:permits rdf:resource="http://creativecommons.org/ns#DerivativeWorks"/>
      </cc:License>
    </rdf:RDF>
  </metadata>
</svg>
